<svg id="Слой_1" data-name="Слой 1"
	xmlns="http://www.w3.org/2000/svg" width="266.79" height="82.08" viewBox="0 0 266.79 82.08">
	<defs>
		<style>.cls-1,.cls-4{fill:#261f0f;}.cls-2,.cls-3{fill:#00adff;}.cls-3,.cls-4{fill-rule:evenodd;}</style>
	</defs>
	<title>logo-full-datamining</title>
	<path class="cls-1" d="M109.35,30.82a9.09,9.09,0,0,1-3.2,4.23,8.4,8.4,0,0,1-5,1.55,9,9,0,0,1-8.39-5.53,9.14,9.14,0,0,1-.7-3.58,8.61,8.61,0,0,1,2.62-6.38,9.24,9.24,0,0,1,11.56-1,8.25,8.25,0,0,1,3.12,4.3h-3.82a4.92,4.92,0,0,0-4.5-2.66,5.09,5.09,0,0,0-3.9,1.69,5.75,5.75,0,0,0-1.56,4,6.19,6.19,0,0,0,.86,3.21,5.53,5.53,0,0,0,2.4,2.2,4.9,4.9,0,0,0,2.22.51,4.76,4.76,0,0,0,4.42-2.56Z" transform="translate(0.03 -0.67)"/>
	<path class="cls-1" d="M129.09,36.26h-3.77l-1.38-3.77h-6.45l-1.4,3.77h-3.72l6.89-17.4h3l6.86,17.4Zm-6.19-6.72-2.15-6.4-2.2,6.4Z" transform="translate(0.03 -0.67)"/>
	<path class="cls-1" d="M145.27,36.26h-4.11l-4.88-7.08v7.08h-3.43V18.86h5.9a6.78,6.78,0,0,1,4.57,1.45,5.48,5.48,0,0,1,1.76,4.35,5.31,5.31,0,0,1-1.31,3.59,4.85,4.85,0,0,1-3.34,1.7l4.83,6.31Zm-3.55-11.48a2.44,2.44,0,0,0-1.14-2.25A4.88,4.88,0,0,0,138,22h-1.74v5.41H138a5.75,5.75,0,0,0,2.63-.44,2.25,2.25,0,0,0,1.06-2.18Z" transform="translate(0.03 -0.67)"/>
	<path class="cls-1" d="M178,18.86v17.4h-3.36V26.54q0-.58.07-1.75t.07-1.75h0l-4.64,13.22h-2.37L163.07,23h0q0,.58.07,1.75t.07,1.75v9.72h-3.36V18.86h4.84l4.25,12.62,4.25-12.62Z" transform="translate(0.03 -0.67)"/>
	<path class="cls-1" d="M198.45,36.26h-3.77l-1.38-3.77h-6.45l-1.4,3.77h-3.72l6.89-17.4h3l6.86,17.4Zm-6.19-6.72-2.15-6.4-2.2,6.4Z" transform="translate(0.03 -0.67)"/>
	<path class="cls-1" d="M214.63,36.26h-4.11l-4.88-7.08v7.08h-3.43V18.86h5.9a6.78,6.78,0,0,1,4.57,1.45,5.48,5.48,0,0,1,1.76,4.35,5.31,5.31,0,0,1-1.31,3.59A4.86,4.86,0,0,1,209.8,30l4.83,6.31Zm-3.55-11.48a2.44,2.44,0,0,0-1.14-2.25,4.88,4.88,0,0,0-2.56-.56h-1.74v5.41h1.74A5.75,5.75,0,0,0,210,27a2.25,2.25,0,0,0,1.06-2.18Z" transform="translate(0.03 -0.67)"/>
	<polygon class="cls-1" points="232.68 18.19 226.31 26.84 232.76 35.59 228.58 35.59 223 27.45 223 35.59 219.51 35.59 219.51 18.19 223 18.19 223 26.41 228.82 18.19 232.68 18.19 232.68 18.19"/>
	<polygon class="cls-1" points="246.07 35.59 236.71 35.59 236.71 18.19 246.07 18.19 246.07 21.28 240.19 21.28 240.19 25.22 246 25.22 246 28.34 240.19 28.34 240.19 32.42 246.07 32.42 246.07 35.59 246.07 35.59"/>
	<polygon class="cls-1" points="260.51 21.31 257.08 21.31 257.08 35.59 253.58 35.59 253.58 21.31 250.14 21.31 250.14 18.19 260.51 18.19 260.51 21.31 260.51 21.31"/>
	<polygon class="cls-1" points="266.79 35.59 263.58 35.59 263.58 32.11 266.79 32.11 266.79 35.59 266.79 35.59"/>
	<polygon class="cls-2" points="102.18 63.41 92.83 63.41 92.83 46.01 102.18 46.01 102.18 49.1 96.31 49.1 96.31 53.04 102.11 53.04 102.11 56.16 96.31 56.16 96.31 60.24 102.18 60.24 102.18 63.41 102.18 63.41"/>
	<polygon class="cls-2" points="121.99 63.41 118 63.41 113.99 56.93 110.03 63.41 106.09 63.41 112.03 54.37 106.52 46.01 110.51 46.01 114.08 51.86 117.57 46.01 121.58 46.01 116.09 54.42 121.99 63.41 121.99 63.41"/>
	<path class="cls-2" d="M126,64.08V46.68h5.24q6.6,0,6.6,5.37a5.46,5.46,0,0,1-1.74,4.45,6.67,6.67,0,0,1-4.45,1.35h-2.18v6.24Zm3.48-14.31v5h1.79a4.54,4.54,0,0,0,2.3-.44,2.65,2.65,0,0,0,0-4,4.06,4.06,0,0,0-2.22-.51Z" transform="translate(0.03 -0.67)"/>
	<polygon class="cls-2" points="151.63 63.41 142.27 63.41 142.27 46.01 151.63 46.01 151.63 49.1 145.75 49.1 145.75 53.04 151.55 53.04 151.55 56.16 145.75 56.16 145.75 60.24 151.63 60.24 151.63 63.41 151.63 63.41"/>
	<path class="cls-2" d="M169.37,64.08h-4.11L160.38,57v7.08H157V46.68h5.9a6.78,6.78,0,0,1,4.57,1.45,5.48,5.48,0,0,1,1.76,4.35,5.31,5.31,0,0,1-1.31,3.59,4.86,4.86,0,0,1-3.34,1.7l4.83,6.31ZM165.82,52.6a2.44,2.44,0,0,0-1.14-2.25,4.88,4.88,0,0,0-2.56-.56h-1.74v5.41h1.74a5.75,5.75,0,0,0,2.63-.44,2.25,2.25,0,0,0,1.06-2.18Z" transform="translate(0.03 -0.67)"/>
	<polygon class="cls-2" points="182.84 49.13 179.4 49.13 179.4 63.41 175.9 63.41 175.9 49.13 172.47 49.13 172.47 46.01 182.84 46.01 182.84 49.13 182.84 49.13"/>
	<path class="cls-3" d="M61.66,27.78a24.91,24.91,0,0,1,.15,27.63L41,41.71,61.66,27.78Z" transform="translate(0.03 -0.67)"/>
	<path class="cls-4" d="M41,.67A41,41,0,0,1,75,18.76l-13.37,9a24.91,24.91,0,1,0,.15,27.63l13.47,8.87A41,41,0,1,1,41,.67Z" transform="translate(0.03 -0.67)"/>
	<path class="cls-1" d="M194,49.66a3.24,3.24,0,0,1-.86,2.43,3.42,3.42,0,0,1-2.49.84h-1.78V46.51h2A2.88,2.88,0,0,1,194,49.66Zm-.79,0a2.59,2.59,0,0,0-.63-1.89,2.53,2.53,0,0,0-1.87-.64h-1.09v5.13h.91a2.77,2.77,0,0,0,2-.66A2.6,2.6,0,0,0,193.16,49.69Z" transform="translate(0.03 -0.67)"/>
	<path class="cls-1" d="M199.24,52.93l-.8-2h-2.58l-.79,2h-.76l2.54-6.45h.63L200,52.93Zm-1-2.72-.75-2q-.15-.38-.3-.93a8.33,8.33,0,0,1-.28.93l-.76,2Z" transform="translate(0.03 -0.67)"/>
	<path class="cls-1" d="M202.25,52.93h-.75V47.17h-2v-.66h4.82v.66h-2Z" transform="translate(0.03 -0.67)"/>
	<path class="cls-1" d="M208.66,52.93l-.8-2h-2.58l-.79,2h-.76l2.54-6.45h.63l2.53,6.45Zm-1-2.72-.75-2q-.15-.38-.3-.93a8.33,8.33,0,0,1-.28.93l-.76,2Z" transform="translate(0.03 -0.67)"/>
	<path class="cls-1" d="M213.16,52.93,211,47.24h0q.06.68.06,1.61v4.09h-.69V46.51h1.13l2,5.3h0l2.05-5.3h1.12v6.42h-.75V48.8q0-.71.06-1.55h0l-2.2,5.69Z" transform="translate(0.03 -0.67)"/>
	<path class="cls-1" d="M218.44,52.93V46.51h.75v6.42Z" transform="translate(0.03 -0.67)"/>
	<path class="cls-1" d="M226,52.93h-.85l-3.51-5.39h0q.07.95.07,1.74v3.65H221V46.51h.84l3.5,5.37h0q0-.12,0-.76t0-.92V46.51h.7Z" transform="translate(0.03 -0.67)"/>
	<path class="cls-1" d="M227.74,52.93V46.51h.75v6.42Z" transform="translate(0.03 -0.67)"/>
	<path class="cls-1" d="M235.27,52.93h-.85l-3.51-5.39h0q.07.95.07,1.74v3.65h-.69V46.51h.84l3.5,5.37h0c0-.08,0-.33,0-.76s0-.74,0-.92V46.51h.7Z" transform="translate(0.03 -0.67)"/>
	<path class="cls-1" d="M239.86,49.57H242v3.12a7,7,0,0,1-1,.25,7.89,7.89,0,0,1-1.22.08,3,3,0,0,1-2.27-.87,3.42,3.42,0,0,1-.81-2.43,3.68,3.68,0,0,1,.4-1.76,2.72,2.72,0,0,1,1.16-1.15,3.75,3.75,0,0,1,1.77-.4,4.84,4.84,0,0,1,1.92.38l-.29.66a4.28,4.28,0,0,0-1.67-.37,2.4,2.4,0,0,0-1.83.7,2.71,2.71,0,0,0-.66,1.94,2.77,2.77,0,0,0,.64,2,2.44,2.44,0,0,0,1.87.67,5.55,5.55,0,0,0,1.31-.15v-2h-1.44Z" transform="translate(0.03 -0.67)"/>
	<path class="cls-1" d="M192.9,59.52a1.8,1.8,0,0,1-.67,1.5,3,3,0,0,1-1.9.52h-.76v2.53h-.75V57.65h1.67Q192.9,57.65,192.9,59.52Zm-3.33,1.38h.67a2.5,2.5,0,0,0,1.44-.32,1.18,1.18,0,0,0,.44-1,1.11,1.11,0,0,0-.42-.95,2.18,2.18,0,0,0-1.3-.31h-.83Z" transform="translate(0.03 -0.67)"/>
	<path class="cls-1" d="M194.24,64.08V57.65H195V63.4h2.83v.68Z" transform="translate(0.03 -0.67)"/>
	<path class="cls-1" d="M203,64.08l-.8-2h-2.58l-.79,2H198l2.54-6.45h.63l2.53,6.45Zm-1-2.72-.75-2q-.15-.38-.3-.93a8.33,8.33,0,0,1-.28.93l-.76,2Z" transform="translate(0.03 -0.67)"/>
	<path class="cls-1" d="M206,64.08h-.75V58.32h-2v-.66H208v.66h-2Z" transform="translate(0.03 -0.67)"/>
	<path class="cls-1" d="M209.71,64.08H209V57.65h3.58v.66h-2.83v2.35h2.66v.66h-2.66Z" transform="translate(0.03 -0.67)"/>
	<path class="cls-1" d="M219.18,60.86a3.54,3.54,0,0,1-.78,2.43,2.74,2.74,0,0,1-2.17.88A2.78,2.78,0,0,1,214,63.3a3.57,3.57,0,0,1-.77-2.45,3.52,3.52,0,0,1,.77-2.43,2.8,2.8,0,0,1,2.2-.86,2.74,2.74,0,0,1,2.16.88A3.53,3.53,0,0,1,219.18,60.86Zm-5.12,0a3,3,0,0,0,.56,2,2.27,2.27,0,0,0,3.23,0,3.85,3.85,0,0,0,0-3.95,1.94,1.94,0,0,0-1.61-.67,2,2,0,0,0-1.62.67A3,3,0,0,0,214.06,60.86Z" transform="translate(0.03 -0.67)"/>
	<path class="cls-1" d="M221.36,61.41v2.67h-.75V57.65h1.76a2.77,2.77,0,0,1,1.75.45,1.64,1.64,0,0,1,.56,1.36,1.71,1.71,0,0,1-1.29,1.72l1.74,2.89h-.88l-1.56-2.67Zm0-.64h1a1.77,1.77,0,0,0,1.16-.31,1.17,1.17,0,0,0,.37-.94,1.07,1.07,0,0,0-.38-.92,2,2,0,0,0-1.21-.28h-1Z" transform="translate(0.03 -0.67)"/>
	<path class="cls-1" d="M229,64.08l-2.18-5.7h0q.06.68.06,1.61v4.09h-.69V57.65h1.13l2,5.3h0l2.05-5.3h1.12v6.42h-.75V59.94q0-.71.06-1.55h0l-2.2,5.69Z" transform="translate(0.03 -0.67)"/>
</svg>